<svg xmlns="http://www.w3.org/2000/svg" xmlns:xlink="http://www.w3.org/1999/xlink" version="1.1" x="0px" y="0px" viewBox="0 0 100 125" enable-background="new 0 0 100 100" xml:space="preserve"><g><path fill="none" d="M7.364,47.383c-0.27,1.225-0.407,2.443-0.407,3.628c0,1.313,0.141,2.677,0.42,4.062l23.751,9.409   c0.046-0.355,0.078-0.698,0.097-1.027c0.038-0.712,0.058-1.349,0.058-1.905c0-0.676-0.02-1.34-0.058-1.996   c-0.026-0.425-0.07-0.843-0.132-1.249l-17.955-6.123c-0.393-0.134-0.659-0.502-0.662-0.917c-0.004-0.415,0.256-0.788,0.646-0.929   l17.969-6.486c0.063-0.414,0.108-0.846,0.135-1.291c0.038-0.673,0.058-1.347,0.058-2.024c0-0.669-0.062-1.505-0.185-2.495   L7.364,47.383z"/><path fill="none" d="M53.829,28.851L39.506,71.226c2.26,0.28,4.387,0.244,6.6-0.076L60.49,28.772   C58.226,28.494,56.108,28.528,53.829,28.851z"/><path fill="none" d="M68.871,38.029c-0.046,0.354-0.078,0.696-0.096,1.024c-0.04,0.717-0.061,1.354-0.061,1.908   c0,0.675,0.021,1.339,0.06,1.993c0.025,0.426,0.069,0.844,0.131,1.25l17.957,6.125c0.393,0.134,0.659,0.502,0.663,0.917   c0.004,0.416-0.256,0.788-0.646,0.929l-17.972,6.486c-0.063,0.414-0.107,0.845-0.132,1.288c-0.04,0.679-0.061,1.353-0.061,2.028   c0,0.672,0.063,1.508,0.186,2.496l23.735-9.345c0.271-1.224,0.408-2.442,0.408-3.628c0-1.28-0.142-2.645-0.424-4.064L68.871,38.029   z"/><path d="M32.915,44.767c0.131-0.658,0.219-1.362,0.263-2.096c0.04-0.712,0.061-1.424,0.061-2.138c0-1.026-0.127-2.375-0.377-4.009   c-0.045-0.294-0.221-0.552-0.479-0.7c-0.257-0.148-0.568-0.171-0.846-0.063L6.17,45.749c-0.294,0.116-0.514,0.367-0.591,0.674   C5.195,47.966,5,49.51,5,51.01c0,1.615,0.193,3.295,0.574,4.993c0.071,0.316,0.293,0.577,0.594,0.695l25.367,10.049   c0.116,0.046,0.238,0.069,0.36,0.069c0.162,0,0.323-0.04,0.469-0.119c0.255-0.139,0.435-0.385,0.491-0.67   c0.171-0.867,0.279-1.695,0.323-2.465c0.04-0.755,0.061-1.426,0.061-2.013c0-0.714-0.021-1.417-0.062-2.113   c-0.043-0.709-0.132-1.403-0.263-2.062c-0.068-0.342-0.313-0.622-0.644-0.735l-15.864-5.411l15.88-5.732   C32.61,45.381,32.848,45.104,32.915,44.767z M31.225,42.558c-0.027,0.445-0.072,0.877-0.135,1.291l-17.969,6.486   c-0.391,0.141-0.65,0.513-0.646,0.929c0.004,0.416,0.269,0.783,0.662,0.917l17.955,6.123c0.062,0.406,0.107,0.824,0.132,1.249   c0.038,0.655,0.058,1.32,0.058,1.996c0,0.556-0.02,1.193-0.058,1.905c-0.019,0.329-0.051,0.672-0.097,1.027L7.376,55.073   c-0.279-1.385-0.42-2.749-0.42-4.062c0-1.185,0.137-2.403,0.407-3.628l23.735-9.344c0.123,0.991,0.185,1.827,0.185,2.495   C31.283,41.211,31.263,41.886,31.225,42.558z"/><path d="M61.955,27.008c-3.075-0.513-5.943-0.499-9.019-0.001c-0.358,0.058-0.654,0.309-0.77,0.653L37.277,71.713   c-0.092,0.272-0.06,0.57,0.087,0.816c0.148,0.246,0.396,0.415,0.678,0.462c1.516,0.253,3.014,0.381,4.451,0.381   c1.477,0,2.994-0.128,4.51-0.381c0.355-0.059,0.65-0.309,0.765-0.651L62.72,28.287c0.092-0.272,0.061-0.57-0.087-0.817   C62.486,27.225,62.238,27.056,61.955,27.008z M46.107,71.15c-2.214,0.32-4.34,0.356-6.6,0.076l14.323-42.375   c2.279-0.323,4.397-0.357,6.661-0.079L46.107,71.15z"/><path d="M94.425,46.512c-0.07-0.318-0.293-0.58-0.595-0.7L68.465,35.764c-0.269-0.106-0.574-0.088-0.827,0.05   c-0.255,0.139-0.435,0.383-0.492,0.667c-0.174,0.87-0.283,1.7-0.324,2.465c-0.042,0.756-0.064,1.429-0.064,2.015   c0,0.716,0.021,1.419,0.064,2.11c0.042,0.707,0.129,1.402,0.262,2.064c0.068,0.342,0.313,0.622,0.643,0.734l15.867,5.412   L67.71,57.014c-0.322,0.116-0.56,0.392-0.627,0.728c-0.132,0.662-0.22,1.368-0.261,2.095c-0.043,0.714-0.064,1.427-0.064,2.14   c0,1.033,0.128,2.382,0.38,4.01c0.045,0.294,0.222,0.551,0.48,0.699c0.15,0.086,0.319,0.13,0.487,0.13   c0.121,0,0.243-0.022,0.358-0.068l25.365-9.987c0.294-0.116,0.514-0.366,0.591-0.673C94.804,54.546,95,53.003,95,51.501   C95,49.928,94.807,48.25,94.425,46.512z M92.635,55.128L68.9,64.473c-0.123-0.987-0.186-1.824-0.186-2.496   c0-0.675,0.021-1.349,0.061-2.028c0.025-0.443,0.069-0.874,0.132-1.288l17.972-6.486c0.391-0.141,0.65-0.513,0.646-0.929   c-0.004-0.416-0.269-0.783-0.663-0.917l-17.957-6.125c-0.062-0.406-0.106-0.824-0.131-1.25c-0.04-0.654-0.06-1.318-0.06-1.993   c0-0.555,0.021-1.191,0.061-1.908c0.018-0.328,0.049-0.67,0.096-1.024l23.749,9.408c0.281,1.419,0.424,2.783,0.424,4.064   C93.044,52.686,92.906,53.904,92.635,55.128z"/></g><text x="0" y="115" fill="#000000" font-size="5px" font-weight="bold" font-family="'Helvetica Neue', Helvetica, Arial-Unicode, Arial, Sans-serif">Created by James Smith</text><text x="0" y="120" fill="#000000" font-size="5px" font-weight="bold" font-family="'Helvetica Neue', Helvetica, Arial-Unicode, Arial, Sans-serif">from the Noun Project</text></svg>